<svg width="231" height="28" viewBox="0 0 231 28" fill="none" xmlns="http://www.w3.org/2000/svg">
<path d="M67.5306 11.2H50.6918V5.59999H71.8901V0H50.6529C49.178 0 47.7635 0.5859 46.7206 1.62881C45.6777 2.67172 45.0918 4.0862 45.0918 5.5611V11.2389C45.0918 12.7138 45.6777 14.1282 46.7206 15.1712C47.7635 16.2141 49.178 16.8 50.6529 16.8H67.4917V22.3999H45.4924V27.9999H67.5306C69.0055 27.9999 70.42 27.414 71.4629 26.3711C72.5058 25.3282 73.0917 23.9137 73.0917 22.4388V16.7611C73.0917 15.2862 72.5058 13.8717 71.4629 12.8288C70.42 11.7859 69.0055 11.2 67.5306 11.2Z" fill="#8F4AF6"/>
<path d="M100.139 0H83.2379C82.5078 -1.7877e-07 81.7848 0.14387 81.1103 0.423389C80.4358 0.702908 79.823 1.1126 79.307 1.62904C78.7909 2.14549 78.3816 2.75857 78.1026 3.43325C77.8235 4.10793 77.6802 4.83099 77.6807 5.5611V22.4388C77.6802 23.1689 77.8235 23.892 78.1026 24.5667C78.3816 25.2414 78.7909 25.8544 79.307 26.3709C79.823 26.8873 80.4358 27.297 81.1103 27.5765C81.7848 27.8561 82.5078 27.9999 83.2379 27.9999H100.139C101.614 27.9999 103.028 27.414 104.071 26.3711C105.114 25.3282 105.7 23.9137 105.7 22.4388V5.5611C105.7 4.0862 105.114 2.67172 104.071 1.62881C103.028 0.5859 101.614 0 100.139 0V0ZM100.1 22.3999H83.3001V5.59999H100.1V22.3999Z" fill="#8F4AF6"/>
<path d="M159.288 1.36178e-06H142.807C141.332 1.36178e-06 139.918 0.585901 138.875 1.62881C137.832 2.67172 137.246 4.0862 137.246 5.5611V27.9999H142.846V18.7988H159.249V27.9999H164.849V5.5611C164.85 4.83066 164.706 4.10729 164.427 3.43235C164.148 2.75742 163.738 2.14417 163.222 1.62767C162.705 1.11117 162.092 0.701563 161.417 0.422273C160.742 0.142983 160.019 -0.00050997 159.288 1.36178e-06ZM159.249 13.1989H142.846V5.59999H159.249V13.1989Z" fill="#8F4AF6"/>
<path d="M224.855 1.22388e-05H208.377C207.646 -0.00152191 206.922 0.141188 206.246 0.419972C205.57 0.698757 204.955 1.10814 204.438 1.62469C203.92 2.14124 203.509 2.75481 203.229 3.43027C202.949 4.10574 202.805 4.82983 202.805 5.56111V27.9999H208.405V18.7989H224.816V27.9999H230.416V5.56111C230.416 4.08622 229.83 2.67173 228.787 1.62882C227.744 0.585912 226.33 1.22388e-05 224.855 1.22388e-05ZM224.816 13.1989H208.416V5.6H224.816V13.1989Z" fill="#8F4AF6"/>
<path d="M192.231 22.3999H189.991L181.964 2.33333C181.69 1.64483 181.215 1.05447 180.602 0.63853C179.988 0.222586 179.264 0.000164771 178.523 0L173.537 0C172.554 0 171.612 0.390463 170.917 1.08549C170.222 1.78052 169.831 2.72318 169.831 3.7061V27.9999H175.431V5.59999H177.671L185.694 25.6666C185.967 26.3551 186.441 26.9456 187.054 27.3616C187.667 27.7777 188.391 28 189.132 27.9999H194.117C195.1 27.9999 196.043 27.6095 196.738 26.9144C197.433 26.2194 197.823 25.2767 197.823 24.2938V0H192.223L192.231 22.3999Z" fill="#8F4AF6"/>
<path d="M116.262 0H110.662V22.4388C110.662 23.9137 111.248 25.3282 112.291 26.3711C113.334 27.414 114.748 27.9999 116.223 27.9999H133.062V22.3999H116.262V0Z" fill="#8F4AF6"/>
<path fill-rule="evenodd" clip-rule="evenodd" d="M5.34354 21.3499C5.44296 21.2423 5.56309 21.1558 5.69673 21.0956C5.83038 21.0355 5.97479 21.0029 6.12132 20.9999H30.559C30.6624 21.0014 30.7632 21.0327 30.8492 21.0901C30.9353 21.1475 31.0029 21.2285 31.044 21.3234C31.0851 21.4183 31.0978 21.523 31.0808 21.625C31.0638 21.727 31.0176 21.8219 30.9479 21.8983L25.7679 27.6499C25.6685 27.7576 25.5484 27.8441 25.4147 27.9043C25.2811 27.9644 25.1367 27.9969 24.9902 27.9999H0.536886C0.433488 27.9985 0.332712 27.9672 0.246681 27.9098C0.16065 27.8524 0.0930266 27.7714 0.0519453 27.6765C0.010864 27.5816 -0.00192562 27.4769 0.0151147 27.3749C0.032155 27.2729 0.0782995 27.178 0.147998 27.1016L5.34354 21.3499ZM30.9713 16.5822C31.041 16.6586 31.0871 16.7535 31.1041 16.8555C31.1212 16.9575 31.1084 17.0622 31.0673 17.1571C31.0262 17.252 30.9586 17.333 30.8726 17.3904C30.7865 17.4478 30.6858 17.4791 30.5824 17.4805L6.13687 17.5C5.99035 17.497 5.84594 17.4644 5.71229 17.4043C5.57864 17.3441 5.45851 17.2576 5.3591 17.15L0.14022 11.4177C0.0705217 11.3414 0.0243772 11.2465 0.00733691 11.1445C-0.00970337 11.0425 0.00308629 10.9377 0.0441676 10.8428C0.0852488 10.7479 0.152872 10.6669 0.238903 10.6095C0.324935 10.5522 0.42571 10.5209 0.529108 10.5194L24.9746 10.5C25.1211 10.503 25.2655 10.5355 25.3992 10.5957C25.5328 10.6558 25.653 10.7423 25.7524 10.85L30.9713 16.5822ZM5.34354 0.349999C5.44296 0.242321 5.56309 0.155821 5.69673 0.0956799C5.83038 0.0355391 5.97479 0.00299582 6.12132 0L30.5746 0.0194444C30.678 0.0209006 30.7788 0.0521984 30.8648 0.109573C30.9508 0.166948 31.0184 0.247956 31.0595 0.342854C31.1006 0.437752 31.1134 0.542497 31.0964 0.644492C31.0793 0.746486 31.0332 0.841386 30.9635 0.917775L25.7679 6.64998C25.6685 6.75766 25.5484 6.84416 25.4147 6.9043C25.2811 6.96444 25.1367 6.99699 24.9902 6.99998H0.536886C0.433488 6.99853 0.332712 6.96723 0.246681 6.90985C0.16065 6.85248 0.0930266 6.77147 0.0519453 6.67657C0.010864 6.58168 -0.00192562 6.47693 0.0151147 6.37493C0.032155 6.27294 0.0782995 6.17804 0.147998 6.10165L5.34354 0.349999Z" fill="#8F4AF6"/>
</svg>
