<svg width="259" height="28" viewBox="0 0 259 28" fill="none" xmlns="http://www.w3.org/2000/svg">
<path d="M69.63 5.42238V0H49.0664C46.0916 0 43.6816 2.40995 43.6816 5.38473V10.8824C43.6816 13.8572 46.0916 16.2671 49.0664 16.2671H65.3712V21.6895H44.0695V27.1119H65.4088C68.3836 27.1119 70.7936 24.702 70.7936 21.7272V16.2295C70.7936 13.2547 68.3836 10.8448 65.4088 10.8448H49.104V5.42238H69.63Z" fill="#9945FF"/>
<path d="M82.4111 5.38473V21.7272C82.4111 24.702 84.8211 27.1119 87.7959 27.1119H104.142C107.117 27.1119 109.527 24.702 109.527 21.7272V5.38473C109.527 2.40995 107.117 0 104.142 0H87.7959C84.8211 0 82.4111 2.40995 82.4111 5.38473ZM104.101 21.6895H87.8335V5.42238H104.101V21.6895Z" fill="#9945FF"/>
<path d="M154.436 5.38473V27.1119H159.858V18.2026H175.737V27.1119H181.16V5.38473C181.16 2.40995 178.75 0 175.775 0H159.817C156.845 0 154.436 2.40995 154.436 5.38473ZM175.737 12.7803H159.858V5.42238H175.737V12.7803Z" fill="#9945FF"/>
<path d="M232.275 5.38473V27.1119H237.698V18.2026H253.577V27.1119H258.999V5.38473C258.999 2.40995 256.589 0 253.615 0H237.656C234.685 0 232.275 2.40995 232.275 5.38473ZM253.577 12.7803H237.698V5.42238H253.577V12.7803Z" fill="#9945FF"/>
<path d="M214.851 0V21.6895H212.682L204.91 2.25556C204.364 0.892434 203.046 0 201.577 0H196.75C194.769 0 193.161 1.60789 193.161 3.58856V27.1119H198.584V5.42238H200.752L208.525 24.8564C209.071 26.2195 210.388 27.1119 211.857 27.1119H216.684C218.665 27.1119 220.273 25.504 220.273 23.5233V0H214.851Z" fill="#9945FF"/>
<path d="M126.943 21.6895V0H121.521V21.7272C121.521 24.702 123.93 27.1119 126.905 27.1119H143.21V21.6895H126.943Z" fill="#9945FF"/>
<path fill-rule="evenodd" clip-rule="evenodd" d="M5.17539 20.6738C5.3712 20.4592 5.64985 20.3349 5.94356 20.3349L29.6062 20.3537C30.0581 20.3537 30.2916 20.8884 29.9903 21.2236L24.952 26.774C24.7562 26.9886 24.4776 27.1129 24.1839 27.1129L0.521176 27.0941C0.0693111 27.0941 -0.164153 26.5594 0.137091 26.2242L5.17539 20.6738ZM29.9903 16.0573C30.2953 16.3924 30.0581 16.9271 29.6062 16.9271L5.94356 16.9459C5.64985 16.9459 5.37496 16.8217 5.17539 16.607L0.137091 11.0566C-0.167918 10.7215 0.0693111 10.1868 0.521176 10.1868L24.1839 10.1679C24.4776 10.1679 24.7524 10.2922 24.952 10.5068L29.9903 16.0573ZM5.17539 0.339875C5.37496 0.125239 5.65361 0.000976562 5.94356 0.000976562L29.6062 0.0198043C30.0581 0.0198043 30.2916 0.554511 29.9903 0.889645L24.952 6.44006C24.7562 6.65469 24.4776 6.77895 24.1839 6.77895L0.521176 6.76013C0.0693111 6.76013 -0.164153 6.22542 0.137091 5.89029L5.17539 0.339875Z" fill="#9945FF"/>
</svg>
