<svg width="28" height="28" viewBox="0 0 28 28" fill="none" xmlns="http://www.w3.org/2000/svg">
<path fill-rule="evenodd" clip-rule="evenodd" d="M0.00130074 14.1952C-0.105035 6.32224 6.32224 -0.105035 14.1952 0.00130074C21.7457 0.106291 27.8937 6.25427 27.9973 13.8062C28.105 21.6791 21.6791 28.1063 13.8048 27.9987C6.25427 27.8937 0.106291 21.7457 0.00130074 14.1952ZM22.6071 22.0923C22.6437 22.0774 22.6766 22.0547 22.7034 22.0257C24.7251 19.8423 25.8473 16.9757 25.845 14C25.845 7.45896 20.5228 2.13879 13.971 2.15494C7.41926 2.1711 2.04524 7.65279 2.15494 14.2019C2.20306 17.1075 3.32173 19.8931 5.29657 22.025C5.32338 22.054 5.35624 22.0767 5.39282 22.0916C5.42939 22.1065 5.4688 22.1131 5.50823 22.1111C5.54767 22.109 5.58616 22.0983 5.621 22.0797C5.65583 22.0611 5.68615 22.0351 5.7098 22.0035C6.31181 21.2161 7.04901 20.542 7.887 20.0127C9.60049 18.913 11.7716 18.3073 14 18.3073C16.2283 18.3073 18.3995 18.913 20.113 20.0127C20.951 20.5422 21.6882 21.2165 22.2902 22.0041C22.3138 22.0358 22.3441 22.0618 22.379 22.0804C22.4138 22.099 22.4523 22.1097 22.4917 22.1117C22.5312 22.1138 22.5706 22.1072 22.6071 22.0923ZM10.5703 7.82641C11.419 6.92679 12.6134 6.43176 13.9343 6.43176C15.2466 6.43176 16.4389 6.93014 17.291 7.83444C18.1538 8.75081 18.5744 9.98334 18.4753 11.3056C18.277 13.9342 16.244 16.0777 13.9343 16.0777C11.6247 16.0777 9.58762 13.9342 9.39336 11.305C9.29757 9.96994 9.72159 8.72602 10.5703 7.82641Z" fill="white" fill-opacity="0.87"/>
</svg>
