<svg width="152" height="84" viewBox="0 0 352 184" fill="none" xmlns="http://www.w3.org/2000/svg">
<path fill-rule="evenodd" clip-rule="evenodd" d="M176.5 73.5193C186.707 73.5193 194.981 81.7934 194.981 92C194.981 102.207 186.707 110.481 176.5 110.481C166.293 110.481 158.019 102.207 158.019 92C158.019 81.7934 166.293 73.5193 176.5 73.5193ZM176.5 69.5C188.926 69.5 199 79.5736 199 92C199 104.426 188.926 114.5 176.5 114.5C164.074 114.5 154 104.426 154 92C154 79.5736 164.074 69.5 176.5 69.5ZM176.5 80.2968C182.964 80.2968 188.204 85.5365 188.204 92C188.204 98.4635 182.964 103.703 176.5 103.703C170.037 103.703 164.797 98.4635 164.797 92C164.797 85.5365 170.037 80.2968 176.5 80.2968ZM176.5 76.2776C185.184 76.2776 192.223 83.3167 192.223 92C192.223 100.683 185.184 107.722 176.5 107.722C167.817 107.722 160.778 100.683 160.778 92C160.778 83.3167 167.817 76.2776 176.5 76.2776Z" fill="white"/>
<g clip-path="url(#clip0)">
<path fill-rule="evenodd" clip-rule="evenodd" d="M80.1721 72.2065C86.2454 78.2959 94.4922 81.7183 103.093 81.7183L122.998 81.7183C124.534 73.912 127.786 66.694 132.355 60.4468C136.209 55.1788 139 49.3447 139 43.2255L139 -6.07588e-06L140 -6.11959e-06L140 -1.50001L178.5 -1.50001L178.5 2.49999L143 2.49999L143 43.2255C143 50.5562 139.671 57.2208 135.584 62.8084C131.501 68.3895 128.56 74.7968 127.081 81.7183L144.347 81.7183L144.347 85.7183L126.399 85.7183C126.136 87.7765 126 89.873 126 92L122 92C122 89.8756 122.125 87.7795 122.369 85.7183L103.093 85.7183C93.4295 85.7183 84.1636 81.873 77.3399 75.0311L53.0709 50.6976C46.9976 44.6082 38.7508 41.1858 30.1505 41.1858L-2.22116e-06 41.1858L-2.39601e-06 37.1858L30.1505 37.1858C39.8135 37.1858 49.0794 41.031 55.9031 47.8729L80.1721 72.2065Z" fill="white"/>
<path fill-rule="evenodd" clip-rule="evenodd" d="M80.1721 72.2065C86.2454 78.2959 94.4922 81.7183 103.093 81.7183L122.998 81.7183C124.534 73.912 127.786 66.694 132.355 60.4468C136.209 55.1788 139 49.3447 139 43.2255L139 -6.07588e-06L140 -6.11959e-06L140 -1.50001L178.5 -1.50001L178.5 2.49999L143 2.49999L143 43.2255C143 50.5562 139.671 57.2208 135.584 62.8084C131.501 68.3895 128.56 74.7968 127.081 81.7183L144.347 81.7183L144.347 85.7183L126.399 85.7183C126.136 87.7765 126 89.873 126 92L122 92C122 89.8756 122.125 87.7795 122.369 85.7183L103.093 85.7183C93.4295 85.7183 84.1636 81.873 77.3399 75.0311L53.0709 50.6976C46.9976 44.6082 38.7508 41.1858 30.1505 41.1858L-2.22116e-06 41.1858L-2.39601e-06 37.1858L30.1505 37.1858C39.8135 37.1858 49.0794 41.031 55.9031 47.8729L80.1721 72.2065Z" fill="white"/>
<path fill-rule="evenodd" clip-rule="evenodd" d="M0 68.5L24.8613 68.5C31.8112 68.5 38.4719 65.7175 43.3566 60.7736L67.302 36.5377C71.4351 32.3544 77.0711 30 82.9518 30L99 30L99 26L82.9518 26C76.0018 26 69.3412 28.7825 64.4565 33.7264L40.5111 57.9623C36.378 62.1456 30.742 64.5 24.8613 64.5L-1.74846e-07 64.5L0 68.5ZM126.5 30L153.5 30C160.68 30 166.5 24.1797 166.5 17L166.5 -7.27795e-06L162.5 -7.1031e-06L162.5 17C162.5 21.9706 158.471 26 153.5 26L126.5 26L126.5 30Z" fill="white"/>
<rect x="109" y="32" width="8" height="8" transform="rotate(-90 109 32)" fill="white"/>
<rect x="-6" y="6" width="12" height="12" rx="6" transform="rotate(-90 -6 6)" fill="white"/>
<g clip-path="url(#clip1)">
<rect x="35" y="86" width="3" height="3" transform="rotate(-90 35 86)" fill="white"/>
<rect x="46" y="86" width="3" height="3" transform="rotate(-90 46 86)" fill="white"/>
<rect x="57" y="86" width="3" height="3" transform="rotate(-90 57 86)" fill="white"/>
</g>
<g clip-path="url(#clip2)">
<rect x="35" y="9" width="3" height="3" transform="rotate(-90 35 9)" fill="white"/>
<rect x="46" y="9" width="3" height="3" transform="rotate(-90 46 9)" fill="white"/>
<rect x="57" y="9" width="3" height="3" transform="rotate(-90 57 9)" fill="white"/>
</g>
</g>
<g clip-path="url(#clip3)">
<path fill-rule="evenodd" clip-rule="evenodd" d="M271.828 72.2065C265.755 78.2959 257.508 81.7183 248.907 81.7183L229.002 81.7183C227.466 73.912 224.214 66.694 219.644 60.4468C215.791 55.1788 213 49.3447 213 43.2255L213 6.07588e-06L212 6.11959e-06L212 -1.49999L173.5 -1.49999L173.5 2.50001L209 2.50001L209 43.2255C209 50.5562 212.329 57.2208 216.416 62.8084C220.499 68.3895 223.44 74.7968 224.919 81.7183L207.653 81.7183L207.653 85.7183L225.601 85.7183C225.864 87.7765 226 89.873 226 92L230 92C230 89.8756 229.875 87.7795 229.631 85.7183L248.907 85.7183C258.571 85.7183 267.836 81.873 274.66 75.0311L298.929 50.6976C305.002 44.6082 313.249 41.1858 321.85 41.1858L352 41.1858L352 37.1858L321.85 37.1858C312.186 37.1858 302.921 41.031 296.097 47.8729L271.828 72.2065Z" fill="white"/>
<path fill-rule="evenodd" clip-rule="evenodd" d="M271.828 72.2065C265.755 78.2959 257.508 81.7183 248.907 81.7183L229.002 81.7183C227.466 73.912 224.214 66.694 219.644 60.4468C215.791 55.1788 213 49.3447 213 43.2255L213 6.07588e-06L212 6.11959e-06L212 -1.49999L173.5 -1.49999L173.5 2.50001L209 2.50001L209 43.2255C209 50.5562 212.329 57.2208 216.416 62.8084C220.499 68.3895 223.44 74.7968 224.919 81.7183L207.653 81.7183L207.653 85.7183L225.601 85.7183C225.864 87.7765 226 89.873 226 92L230 92C230 89.8756 229.875 87.7795 229.631 85.7183L248.907 85.7183C258.571 85.7183 267.836 81.873 274.66 75.0311L298.929 50.6976C305.002 44.6082 313.249 41.1858 321.85 41.1858L352 41.1858L352 37.1858L321.85 37.1858C312.186 37.1858 302.921 41.031 296.097 47.8729L271.828 72.2065Z" fill="white"/>
<path fill-rule="evenodd" clip-rule="evenodd" d="M352 68.5L327.139 68.5C320.189 68.5 313.528 65.7175 308.643 60.7736L284.698 36.5377C280.565 32.3544 274.929 30 269.048 30L253 30L253 26L269.048 26C275.998 26 282.659 28.7825 287.543 33.7264L311.489 57.9623C315.622 62.1456 321.258 64.5 327.139 64.5L352 64.5L352 68.5ZM225.5 30L198.5 30C191.32 30 185.5 24.1797 185.5 17L185.5 7.27795e-06L189.5 7.1031e-06L189.5 17C189.5 21.9706 193.529 26 198.5 26L225.5 26L225.5 30Z" fill="white"/>
<rect width="8" height="8" transform="matrix(-4.37114e-08 -1 -1 4.37114e-08 243 32)" fill="white"/>
<rect width="12" height="12" rx="6" transform="matrix(-4.37114e-08 -1 -1 4.37114e-08 358 6)" fill="white"/>
<g clip-path="url(#clip4)">
<rect width="3" height="3" transform="matrix(-4.37114e-08 -1 -1 4.37114e-08 317 86)" fill="white"/>
<rect width="3" height="3" transform="matrix(-4.37114e-08 -1 -1 4.37114e-08 306 86)" fill="white"/>
<rect width="3" height="3" transform="matrix(-4.37114e-08 -1 -1 4.37114e-08 295 86)" fill="white"/>
</g>
<g clip-path="url(#clip5)">
<rect width="3" height="3" transform="matrix(-4.37114e-08 -1 -1 4.37114e-08 317 9)" fill="white"/>
<rect width="3" height="3" transform="matrix(-4.37114e-08 -1 -1 4.37114e-08 306 9)" fill="white"/>
<rect width="3" height="3" transform="matrix(-4.37114e-08 -1 -1 4.37114e-08 295 9)" fill="white"/>
</g>
</g>
<g clip-path="url(#clip6)">
<path fill-rule="evenodd" clip-rule="evenodd" d="M80.1721 111.794C86.2454 105.704 94.4922 102.282 103.093 102.282L122.998 102.282C124.534 110.088 127.786 117.306 132.356 123.553C136.209 128.821 139 134.655 139 140.775L139 184L140 184L140 185.5L178.5 185.5L178.5 181.5L143 181.5L143 140.775C143 133.444 139.671 126.779 135.584 121.192C131.501 115.61 128.56 109.203 127.081 102.282L144.347 102.282L144.347 98.2817L126.399 98.2817C126.136 96.2235 126 94.127 126 92L122 92C122 94.1244 122.125 96.2205 122.369 98.2817L103.093 98.2817C93.4295 98.2817 84.1636 102.127 77.3399 108.969L53.0709 133.302C46.9976 139.392 38.7508 142.814 30.1505 142.814L2.22116e-06 142.814L2.39601e-06 146.814L30.1505 146.814C39.8135 146.814 49.0794 142.969 55.9031 136.127L80.1721 111.794Z" fill="white"/>
<path fill-rule="evenodd" clip-rule="evenodd" d="M80.1721 111.794C86.2454 105.704 94.4922 102.282 103.093 102.282L122.998 102.282C124.534 110.088 127.786 117.306 132.356 123.553C136.209 128.821 139 134.655 139 140.775L139 184L140 184L140 185.5L178.5 185.5L178.5 181.5L143 181.5L143 140.775C143 133.444 139.671 126.779 135.584 121.192C131.501 115.61 128.56 109.203 127.081 102.282L144.347 102.282L144.347 98.2817L126.399 98.2817C126.136 96.2235 126 94.127 126 92L122 92C122 94.1244 122.125 96.2205 122.369 98.2817L103.093 98.2817C93.4295 98.2817 84.1636 102.127 77.3399 108.969L53.0709 133.302C46.9976 139.392 38.7508 142.814 30.1505 142.814L2.22116e-06 142.814L2.39601e-06 146.814L30.1505 146.814C39.8135 146.814 49.0794 142.969 55.9031 136.127L80.1721 111.794Z" fill="white"/>
<path fill-rule="evenodd" clip-rule="evenodd" d="M0 115.5L24.8613 115.5C31.8112 115.5 38.4719 118.282 43.3566 123.226L67.302 147.462C71.4351 151.646 77.0711 154 82.9518 154L99 154L99 158L82.9518 158C76.0018 158 69.3412 155.218 64.4565 150.274L40.5111 126.038C36.378 121.854 30.742 119.5 24.8613 119.5L1.74846e-07 119.5L0 115.5ZM126.5 154L153.5 154C160.68 154 166.5 159.82 166.5 167L166.5 184L162.5 184L162.5 167C162.5 162.029 158.471 158 153.5 158L126.5 158L126.5 154Z" fill="white"/>
<rect width="8" height="8" transform="matrix(4.37114e-08 1 1 -4.37114e-08 109 152)" fill="white"/>
<rect width="12" height="12" rx="6" transform="matrix(4.37114e-08 1 1 -4.37114e-08 -6 178)" fill="white"/>
<g clip-path="url(#clip7)">
<rect width="3" height="3" transform="matrix(4.37114e-08 1 1 -4.37114e-08 35 98)" fill="white"/>
<rect width="3" height="3" transform="matrix(4.37114e-08 1 1 -4.37114e-08 46 98)" fill="white"/>
<rect width="3" height="3" transform="matrix(4.37114e-08 1 1 -4.37114e-08 57 98)" fill="white"/>
</g>
<g clip-path="url(#clip8)">
<rect width="3" height="3" transform="matrix(4.37114e-08 1 1 -4.37114e-08 35 175)" fill="white"/>
<rect width="3" height="3" transform="matrix(4.37114e-08 1 1 -4.37114e-08 46 175)" fill="white"/>
<rect width="3" height="3" transform="matrix(4.37114e-08 1 1 -4.37114e-08 57 175)" fill="white"/>
</g>
</g>
<g clip-path="url(#clip9)">
<path fill-rule="evenodd" clip-rule="evenodd" d="M271.828 111.794C265.755 105.704 257.508 102.282 248.907 102.282L229.002 102.282C227.466 110.088 224.214 117.306 219.645 123.553C215.791 128.821 213 134.655 213 140.775L213 184L212 184L212 185.5L173.5 185.5L173.5 181.5L209 181.5L209 140.775C209 133.444 212.329 126.779 216.416 121.192C220.499 115.61 223.44 109.203 224.919 102.282L207.653 102.282L207.653 98.2817L225.601 98.2817C225.864 96.2235 226 94.127 226 92L230 92C230 94.1244 229.875 96.2205 229.631 98.2817L248.907 98.2817C258.571 98.2817 267.836 102.127 274.66 108.969L298.929 133.302C305.002 139.392 313.249 142.814 321.85 142.814L352 142.814L352 146.814L321.85 146.814C312.186 146.814 302.921 142.969 296.097 136.127L271.828 111.794Z" fill="white"/>
<path fill-rule="evenodd" clip-rule="evenodd" d="M271.828 111.794C265.755 105.704 257.508 102.282 248.907 102.282L229.002 102.282C227.466 110.088 224.214 117.306 219.645 123.553C215.791 128.821 213 134.655 213 140.775L213 184L212 184L212 185.5L173.5 185.5L173.5 181.5L209 181.5L209 140.775C209 133.444 212.329 126.779 216.416 121.192C220.499 115.61 223.44 109.203 224.919 102.282L207.653 102.282L207.653 98.2817L225.601 98.2817C225.864 96.2235 226 94.127 226 92L230 92C230 94.1244 229.875 96.2205 229.631 98.2817L248.907 98.2817C258.571 98.2817 267.836 102.127 274.66 108.969L298.929 133.302C305.002 139.392 313.249 142.814 321.85 142.814L352 142.814L352 146.814L321.85 146.814C312.186 146.814 302.921 142.969 296.097 136.127L271.828 111.794Z" fill="white"/>
<path fill-rule="evenodd" clip-rule="evenodd" d="M352 115.5L327.139 115.5C320.189 115.5 313.528 118.282 308.643 123.226L284.698 147.462C280.565 151.646 274.929 154 269.048 154L253 154L253 158L269.048 158C275.998 158 282.659 155.218 287.543 150.274L311.489 126.038C315.622 121.854 321.258 119.5 327.139 119.5L352 119.5L352 115.5ZM225.5 154L198.5 154C191.32 154 185.5 159.82 185.5 167L185.5 184L189.5 184L189.5 167C189.5 162.029 193.529 158 198.5 158L225.5 158L225.5 154Z" fill="white"/>
<rect x="243" y="152" width="8" height="8" transform="rotate(90 243 152)" fill="white"/>
<rect x="358" y="178" width="12" height="12" rx="6" transform="rotate(90 358 178)" fill="white"/>
<g clip-path="url(#clip10)">
<rect x="317" y="98" width="3" height="3" transform="rotate(90 317 98)" fill="white"/>
<rect x="306" y="98" width="3" height="3" transform="rotate(90 306 98)" fill="white"/>
<rect x="295" y="98" width="3" height="3" transform="rotate(90 295 98)" fill="white"/>
</g>
<g clip-path="url(#clip11)">
<rect x="317" y="175" width="3" height="3" transform="rotate(90 317 175)" fill="white"/>
<rect x="306" y="175" width="3" height="3" transform="rotate(90 306 175)" fill="white"/>
<rect x="295" y="175" width="3" height="3" transform="rotate(90 295 175)" fill="white"/>
</g>
</g>
<path fill-rule="evenodd" clip-rule="evenodd" d="M176.5 73.5193C186.707 73.5193 194.981 81.7934 194.981 92C194.981 102.207 186.707 110.481 176.5 110.481C166.293 110.481 158.019 102.207 158.019 92C158.019 81.7934 166.293 73.5193 176.5 73.5193ZM176.5 69.5C188.926 69.5 199 79.5736 199 92C199 104.426 188.926 114.5 176.5 114.5C164.074 114.5 154 104.426 154 92C154 79.5736 164.074 69.5 176.5 69.5ZM176.5 80.2968C182.964 80.2968 188.204 85.5365 188.204 92C188.204 98.4635 182.964 103.703 176.5 103.703C170.037 103.703 164.797 98.4635 164.797 92C164.797 85.5365 170.037 80.2968 176.5 80.2968ZM176.5 76.2776C185.184 76.2776 192.223 83.3167 192.223 92C192.223 100.683 185.184 107.722 176.5 107.722C167.817 107.722 160.778 100.683 160.778 92C160.778 83.3167 167.817 76.2776 176.5 76.2776Z" fill="white"/>
<g clip-path="url(#clip12)">
<path fill-rule="evenodd" clip-rule="evenodd" d="M80.1721 72.2065C86.2454 78.2959 94.4922 81.7183 103.093 81.7183L122.998 81.7183C124.534 73.912 127.786 66.694 132.355 60.4468C136.209 55.1788 139 49.3447 139 43.2255L139 -6.07588e-06L140 -6.11959e-06L140 -1.50001L178.5 -1.50001L178.5 2.49999L143 2.49999L143 43.2255C143 50.5562 139.671 57.2208 135.584 62.8084C131.501 68.3895 128.56 74.7968 127.081 81.7183L144.347 81.7183L144.347 85.7183L126.399 85.7183C126.136 87.7765 126 89.873 126 92L122 92C122 89.8756 122.125 87.7795 122.369 85.7183L103.093 85.7183C93.4295 85.7183 84.1636 81.873 77.3399 75.0311L53.0709 50.6976C46.9976 44.6082 38.7508 41.1858 30.1505 41.1858L-2.22116e-06 41.1858L-2.39601e-06 37.1858L30.1505 37.1858C39.8135 37.1858 49.0794 41.031 55.9031 47.8729L80.1721 72.2065Z" fill="white"/>
<path fill-rule="evenodd" clip-rule="evenodd" d="M80.1721 72.2065C86.2454 78.2959 94.4922 81.7183 103.093 81.7183L122.998 81.7183C124.534 73.912 127.786 66.694 132.355 60.4468C136.209 55.1788 139 49.3447 139 43.2255L139 -6.07588e-06L140 -6.11959e-06L140 -1.50001L178.5 -1.50001L178.5 2.49999L143 2.49999L143 43.2255C143 50.5562 139.671 57.2208 135.584 62.8084C131.501 68.3895 128.56 74.7968 127.081 81.7183L144.347 81.7183L144.347 85.7183L126.399 85.7183C126.136 87.7765 126 89.873 126 92L122 92C122 89.8756 122.125 87.7795 122.369 85.7183L103.093 85.7183C93.4295 85.7183 84.1636 81.873 77.3399 75.0311L53.0709 50.6976C46.9976 44.6082 38.7508 41.1858 30.1505 41.1858L-2.22116e-06 41.1858L-2.39601e-06 37.1858L30.1505 37.1858C39.8135 37.1858 49.0794 41.031 55.9031 47.8729L80.1721 72.2065Z" fill="white"/>
<path fill-rule="evenodd" clip-rule="evenodd" d="M0 68.5L24.8613 68.5C31.8112 68.5 38.4719 65.7175 43.3566 60.7736L67.302 36.5377C71.4351 32.3544 77.0711 30 82.9518 30L99 30L99 26L82.9518 26C76.0018 26 69.3412 28.7825 64.4565 33.7264L40.5111 57.9623C36.378 62.1456 30.742 64.5 24.8613 64.5L-1.74846e-07 64.5L0 68.5ZM126.5 30L153.5 30C160.68 30 166.5 24.1797 166.5 17L166.5 -7.27795e-06L162.5 -7.1031e-06L162.5 17C162.5 21.9706 158.471 26 153.5 26L126.5 26L126.5 30Z" fill="white"/>
<rect x="109" y="32" width="8" height="8" transform="rotate(-90 109 32)" fill="white"/>
<rect x="-6" y="6" width="12" height="12" rx="6" transform="rotate(-90 -6 6)" fill="white"/>
<g clip-path="url(#clip13)">
<rect x="35" y="86" width="3" height="3" transform="rotate(-90 35 86)" fill="white"/>
<rect x="46" y="86" width="3" height="3" transform="rotate(-90 46 86)" fill="white"/>
<rect x="57" y="86" width="3" height="3" transform="rotate(-90 57 86)" fill="white"/>
</g>
<g clip-path="url(#clip14)">
<rect x="35" y="9" width="3" height="3" transform="rotate(-90 35 9)" fill="white"/>
<rect x="46" y="9" width="3" height="3" transform="rotate(-90 46 9)" fill="white"/>
<rect x="57" y="9" width="3" height="3" transform="rotate(-90 57 9)" fill="white"/>
</g>
</g>
<g clip-path="url(#clip15)">
<path fill-rule="evenodd" clip-rule="evenodd" d="M271.828 72.2065C265.755 78.2959 257.508 81.7183 248.907 81.7183L229.002 81.7183C227.466 73.912 224.214 66.694 219.644 60.4468C215.791 55.1788 213 49.3447 213 43.2255L213 6.07588e-06L212 6.11959e-06L212 -1.49999L173.5 -1.49999L173.5 2.50001L209 2.50001L209 43.2255C209 50.5562 212.329 57.2208 216.416 62.8084C220.499 68.3895 223.44 74.7968 224.919 81.7183L207.653 81.7183L207.653 85.7183L225.601 85.7183C225.864 87.7765 226 89.873 226 92L230 92C230 89.8756 229.875 87.7795 229.631 85.7183L248.907 85.7183C258.571 85.7183 267.836 81.873 274.66 75.0311L298.929 50.6976C305.002 44.6082 313.249 41.1858 321.85 41.1858L352 41.1858L352 37.1858L321.85 37.1858C312.186 37.1858 302.921 41.031 296.097 47.8729L271.828 72.2065Z" fill="white"/>
<path fill-rule="evenodd" clip-rule="evenodd" d="M271.828 72.2065C265.755 78.2959 257.508 81.7183 248.907 81.7183L229.002 81.7183C227.466 73.912 224.214 66.694 219.644 60.4468C215.791 55.1788 213 49.3447 213 43.2255L213 6.07588e-06L212 6.11959e-06L212 -1.49999L173.5 -1.49999L173.5 2.50001L209 2.50001L209 43.2255C209 50.5562 212.329 57.2208 216.416 62.8084C220.499 68.3895 223.44 74.7968 224.919 81.7183L207.653 81.7183L207.653 85.7183L225.601 85.7183C225.864 87.7765 226 89.873 226 92L230 92C230 89.8756 229.875 87.7795 229.631 85.7183L248.907 85.7183C258.571 85.7183 267.836 81.873 274.66 75.0311L298.929 50.6976C305.002 44.6082 313.249 41.1858 321.85 41.1858L352 41.1858L352 37.1858L321.85 37.1858C312.186 37.1858 302.921 41.031 296.097 47.8729L271.828 72.2065Z" fill="white"/>
<path fill-rule="evenodd" clip-rule="evenodd" d="M352 68.5L327.139 68.5C320.189 68.5 313.528 65.7175 308.643 60.7736L284.698 36.5377C280.565 32.3544 274.929 30 269.048 30L253 30L253 26L269.048 26C275.998 26 282.659 28.7825 287.543 33.7264L311.489 57.9623C315.622 62.1456 321.258 64.5 327.139 64.5L352 64.5L352 68.5ZM225.5 30L198.5 30C191.32 30 185.5 24.1797 185.5 17L185.5 7.27795e-06L189.5 7.1031e-06L189.5 17C189.5 21.9706 193.529 26 198.5 26L225.5 26L225.5 30Z" fill="white"/>
<rect width="8" height="8" transform="matrix(-4.37114e-08 -1 -1 4.37114e-08 243 32)" fill="white"/>
<rect width="12" height="12" rx="6" transform="matrix(-4.37114e-08 -1 -1 4.37114e-08 358 6)" fill="white"/>
<g clip-path="url(#clip16)">
<rect width="3" height="3" transform="matrix(-4.37114e-08 -1 -1 4.37114e-08 317 86)" fill="white"/>
<rect width="3" height="3" transform="matrix(-4.37114e-08 -1 -1 4.37114e-08 306 86)" fill="white"/>
<rect width="3" height="3" transform="matrix(-4.37114e-08 -1 -1 4.37114e-08 295 86)" fill="white"/>
</g>
<g clip-path="url(#clip17)">
<rect width="3" height="3" transform="matrix(-4.37114e-08 -1 -1 4.37114e-08 317 9)" fill="white"/>
<rect width="3" height="3" transform="matrix(-4.37114e-08 -1 -1 4.37114e-08 306 9)" fill="white"/>
<rect width="3" height="3" transform="matrix(-4.37114e-08 -1 -1 4.37114e-08 295 9)" fill="white"/>
</g>
</g>
<g clip-path="url(#clip18)">
<path fill-rule="evenodd" clip-rule="evenodd" d="M80.1721 111.794C86.2454 105.704 94.4922 102.282 103.093 102.282L122.998 102.282C124.534 110.088 127.786 117.306 132.356 123.553C136.209 128.821 139 134.655 139 140.775L139 184L140 184L140 185.5L178.5 185.5L178.5 181.5L143 181.5L143 140.775C143 133.444 139.671 126.779 135.584 121.192C131.501 115.61 128.56 109.203 127.081 102.282L144.347 102.282L144.347 98.2817L126.399 98.2817C126.136 96.2235 126 94.127 126 92L122 92C122 94.1244 122.125 96.2205 122.369 98.2817L103.093 98.2817C93.4295 98.2817 84.1636 102.127 77.3399 108.969L53.0709 133.302C46.9976 139.392 38.7508 142.814 30.1505 142.814L2.22116e-06 142.814L2.39601e-06 146.814L30.1505 146.814C39.8135 146.814 49.0794 142.969 55.9031 136.127L80.1721 111.794Z" fill="white"/>
<path fill-rule="evenodd" clip-rule="evenodd" d="M80.1721 111.794C86.2454 105.704 94.4922 102.282 103.093 102.282L122.998 102.282C124.534 110.088 127.786 117.306 132.356 123.553C136.209 128.821 139 134.655 139 140.775L139 184L140 184L140 185.5L178.5 185.5L178.5 181.5L143 181.5L143 140.775C143 133.444 139.671 126.779 135.584 121.192C131.501 115.61 128.56 109.203 127.081 102.282L144.347 102.282L144.347 98.2817L126.399 98.2817C126.136 96.2235 126 94.127 126 92L122 92C122 94.1244 122.125 96.2205 122.369 98.2817L103.093 98.2817C93.4295 98.2817 84.1636 102.127 77.3399 108.969L53.0709 133.302C46.9976 139.392 38.7508 142.814 30.1505 142.814L2.22116e-06 142.814L2.39601e-06 146.814L30.1505 146.814C39.8135 146.814 49.0794 142.969 55.9031 136.127L80.1721 111.794Z" fill="white"/>
<path fill-rule="evenodd" clip-rule="evenodd" d="M0 115.5L24.8613 115.5C31.8112 115.5 38.4719 118.282 43.3566 123.226L67.302 147.462C71.4351 151.646 77.0711 154 82.9518 154L99 154L99 158L82.9518 158C76.0018 158 69.3412 155.218 64.4565 150.274L40.5111 126.038C36.378 121.854 30.742 119.5 24.8613 119.5L1.74846e-07 119.5L0 115.5ZM126.5 154L153.5 154C160.68 154 166.5 159.82 166.5 167L166.5 184L162.5 184L162.5 167C162.5 162.029 158.471 158 153.5 158L126.5 158L126.5 154Z" fill="white"/>
<rect width="8" height="8" transform="matrix(4.37114e-08 1 1 -4.37114e-08 109 152)" fill="white"/>
<rect width="12" height="12" rx="6" transform="matrix(4.37114e-08 1 1 -4.37114e-08 -6 178)" fill="white"/>
<g clip-path="url(#clip19)">
<rect width="3" height="3" transform="matrix(4.37114e-08 1 1 -4.37114e-08 35 98)" fill="white"/>
<rect width="3" height="3" transform="matrix(4.37114e-08 1 1 -4.37114e-08 46 98)" fill="white"/>
<rect width="3" height="3" transform="matrix(4.37114e-08 1 1 -4.37114e-08 57 98)" fill="white"/>
</g>
<g clip-path="url(#clip20)">
<rect width="3" height="3" transform="matrix(4.37114e-08 1 1 -4.37114e-08 35 175)" fill="white"/>
<rect width="3" height="3" transform="matrix(4.37114e-08 1 1 -4.37114e-08 46 175)" fill="white"/>
<rect width="3" height="3" transform="matrix(4.37114e-08 1 1 -4.37114e-08 57 175)" fill="white"/>
</g>
</g>
<g clip-path="url(#clip21)">
<path fill-rule="evenodd" clip-rule="evenodd" d="M271.828 111.794C265.755 105.704 257.508 102.282 248.907 102.282L229.002 102.282C227.466 110.088 224.214 117.306 219.645 123.553C215.791 128.821 213 134.655 213 140.775L213 184L212 184L212 185.5L173.5 185.5L173.5 181.5L209 181.5L209 140.775C209 133.444 212.329 126.779 216.416 121.192C220.499 115.61 223.44 109.203 224.919 102.282L207.653 102.282L207.653 98.2817L225.601 98.2817C225.864 96.2235 226 94.127 226 92L230 92C230 94.1244 229.875 96.2205 229.631 98.2817L248.907 98.2817C258.571 98.2817 267.836 102.127 274.66 108.969L298.929 133.302C305.002 139.392 313.249 142.814 321.85 142.814L352 142.814L352 146.814L321.85 146.814C312.186 146.814 302.921 142.969 296.097 136.127L271.828 111.794Z" fill="white"/>
<path fill-rule="evenodd" clip-rule="evenodd" d="M271.828 111.794C265.755 105.704 257.508 102.282 248.907 102.282L229.002 102.282C227.466 110.088 224.214 117.306 219.645 123.553C215.791 128.821 213 134.655 213 140.775L213 184L212 184L212 185.5L173.5 185.5L173.5 181.5L209 181.5L209 140.775C209 133.444 212.329 126.779 216.416 121.192C220.499 115.61 223.44 109.203 224.919 102.282L207.653 102.282L207.653 98.2817L225.601 98.2817C225.864 96.2235 226 94.127 226 92L230 92C230 94.1244 229.875 96.2205 229.631 98.2817L248.907 98.2817C258.571 98.2817 267.836 102.127 274.66 108.969L298.929 133.302C305.002 139.392 313.249 142.814 321.85 142.814L352 142.814L352 146.814L321.85 146.814C312.186 146.814 302.921 142.969 296.097 136.127L271.828 111.794Z" fill="white"/>
<path fill-rule="evenodd" clip-rule="evenodd" d="M352 115.5L327.139 115.5C320.189 115.5 313.528 118.282 308.643 123.226L284.698 147.462C280.565 151.646 274.929 154 269.048 154L253 154L253 158L269.048 158C275.998 158 282.659 155.218 287.543 150.274L311.489 126.038C315.622 121.854 321.258 119.5 327.139 119.5L352 119.5L352 115.5ZM225.5 154L198.5 154C191.32 154 185.5 159.82 185.5 167L185.5 184L189.5 184L189.5 167C189.5 162.029 193.529 158 198.5 158L225.5 158L225.5 154Z" fill="white"/>
<rect x="243" y="152" width="8" height="8" transform="rotate(90 243 152)" fill="white"/>
<rect x="358" y="178" width="12" height="12" rx="6" transform="rotate(90 358 178)" fill="white"/>
<g clip-path="url(#clip22)">
<rect x="317" y="98" width="3" height="3" transform="rotate(90 317 98)" fill="white"/>
<rect x="306" y="98" width="3" height="3" transform="rotate(90 306 98)" fill="white"/>
<rect x="295" y="98" width="3" height="3" transform="rotate(90 295 98)" fill="white"/>
</g>
<g clip-path="url(#clip23)">
<rect x="317" y="175" width="3" height="3" transform="rotate(90 317 175)" fill="white"/>
<rect x="306" y="175" width="3" height="3" transform="rotate(90 306 175)" fill="white"/>
<rect x="295" y="175" width="3" height="3" transform="rotate(90 295 175)" fill="white"/>
</g>
</g>
<defs>
<clipPath id="clip0">
<rect width="92" height="176" fill="white" transform="translate(0 92) rotate(-90)"/>
</clipPath>
<clipPath id="clip1">
<rect width="3" height="25" fill="white" transform="translate(35 86) rotate(-90)"/>
</clipPath>
<clipPath id="clip2">
<rect width="3" height="25" fill="white" transform="translate(35 9) rotate(-90)"/>
</clipPath>
<clipPath id="clip3">
<rect width="92" height="176" fill="white" transform="matrix(-4.37114e-08 -1 -1 4.37114e-08 352 92)"/>
</clipPath>
<clipPath id="clip4">
<rect width="3" height="25" fill="white" transform="matrix(-4.37114e-08 -1 -1 4.37114e-08 317 86)"/>
</clipPath>
<clipPath id="clip5">
<rect width="3" height="25" fill="white" transform="matrix(-4.37114e-08 -1 -1 4.37114e-08 317 9)"/>
</clipPath>
<clipPath id="clip6">
<rect width="92" height="176" fill="white" transform="matrix(4.37114e-08 1 1 -4.37114e-08 0 92)"/>
</clipPath>
<clipPath id="clip7">
<rect width="3" height="25" fill="white" transform="matrix(4.37114e-08 1 1 -4.37114e-08 35 98)"/>
</clipPath>
<clipPath id="clip8">
<rect width="3" height="25" fill="white" transform="matrix(4.37114e-08 1 1 -4.37114e-08 35 175)"/>
</clipPath>
<clipPath id="clip9">
<rect width="92" height="176" fill="white" transform="translate(352 92) rotate(90)"/>
</clipPath>
<clipPath id="clip10">
<rect width="3" height="25" fill="white" transform="translate(317 98) rotate(90)"/>
</clipPath>
<clipPath id="clip11">
<rect width="3" height="25" fill="white" transform="translate(317 175) rotate(90)"/>
</clipPath>
<clipPath id="clip12">
<rect width="92" height="176" fill="white" transform="translate(0 92) rotate(-90)"/>
</clipPath>
<clipPath id="clip13">
<rect width="3" height="25" fill="white" transform="translate(35 86) rotate(-90)"/>
</clipPath>
<clipPath id="clip14">
<rect width="3" height="25" fill="white" transform="translate(35 9) rotate(-90)"/>
</clipPath>
<clipPath id="clip15">
<rect width="92" height="176" fill="white" transform="matrix(-4.37114e-08 -1 -1 4.37114e-08 352 92)"/>
</clipPath>
<clipPath id="clip16">
<rect width="3" height="25" fill="white" transform="matrix(-4.37114e-08 -1 -1 4.37114e-08 317 86)"/>
</clipPath>
<clipPath id="clip17">
<rect width="3" height="25" fill="white" transform="matrix(-4.37114e-08 -1 -1 4.37114e-08 317 9)"/>
</clipPath>
<clipPath id="clip18">
<rect width="92" height="176" fill="white" transform="matrix(4.37114e-08 1 1 -4.37114e-08 0 92)"/>
</clipPath>
<clipPath id="clip19">
<rect width="3" height="25" fill="white" transform="matrix(4.37114e-08 1 1 -4.37114e-08 35 98)"/>
</clipPath>
<clipPath id="clip20">
<rect width="3" height="25" fill="white" transform="matrix(4.37114e-08 1 1 -4.37114e-08 35 175)"/>
</clipPath>
<clipPath id="clip21">
<rect width="92" height="176" fill="white" transform="translate(352 92) rotate(90)"/>
</clipPath>
<clipPath id="clip22">
<rect width="3" height="25" fill="white" transform="translate(317 98) rotate(90)"/>
</clipPath>
<clipPath id="clip23">
<rect width="3" height="25" fill="white" transform="translate(317 175) rotate(90)"/>
</clipPath>
</defs>
</svg>
