<svg width="575" height="432" fill="none" xmlns="http://www.w3.org/2000/svg"><g clip-path="url(#a)"><g filter="url(#b)"><path d="M-149 0h873v551h-873V0Z" fill="#111" fill-opacity="0.8"/></g><g opacity="0.75" filter="url(#c)"><mask id="d" mask-type="alpha" maskUnits="userSpaceOnUse" x="-28" y="-23" width="564" height="465"><path fill="#fff" d="M-28-22.002h564v464H-28z"/></mask><g mask="url(#d)"><g style="mix-blend-mode:overlay" filter="url(#e)"><ellipse cx="382.104" cy="89.213" rx="240.873" ry="240.907" fill="#2F1B52"/></g><g filter="url(#f)"><circle cx="128" cy="333.998" r="168" fill="#693BCC" fill-opacity="0.5"/></g><g filter="url(#g)"><circle cx="466" cy="130.998" r="168" fill="#00FFA3" fill-opacity="0.1"/></g></g></g></g><rect x="15" y="73" width="543" height="24" rx="4" fill="#1F2423" fill-opacity="0.5"/><rect x="15" y="17.356" width="543" height="27.2864" rx="4" fill="#1F2423" fill-opacity="0.5"/><rect x="15" y="109" width="543" height="74" rx="4" fill="#1F2423" fill-opacity="0.5"/><path d="M49.947 31.025h2.217c.312 0 .564.254.564.568a.566.566 0 0 1-.564.568H49.49a.174.174 0 0 0-.114.043l-.807.696c-.124.107-.05.31.114.31h3.348a.002.002 0 0 0 .003-.002 1.636 1.636 0 0 0 .13.002c.889 0 1.609-.724 1.609-1.617a1.614 1.614 0 0 0-1.478-1.615.003.003 0 0 0-.003-.003h-2.39a.566.566 0 0 1-.563-.568c0-.314.252-.568.564-.568h2.671a.175.175 0 0 0 .119-.047l.75-.696c.117-.11.04-.306-.119-.306h-3.42c-.889 0-1.609.724-1.609 1.617a1.613 1.613 0 0 0 1.653 1.618ZM62.864 27.79a.176.176 0 0 0-.175.176v5.068c0 .098.078.177.175.177h4.062c.048 0 .095-.02.128-.056l.508-.545a.177.177 0 0 0-.128-.297h-3.546a.176.176 0 0 1-.175-.177v-4.17a.176.176 0 0 0-.176-.176h-.672Z" fill="#fff"/><path fill-rule="evenodd" clip-rule="evenodd" d="M56.36 27.79h-.001a1.005 1.005 0 0 0-.96.961v3.41h.001v.044a1.005 1.005 0 0 0 .96 1.005h3.685a1.005 1.005 0 0 0 .96-1.05v-3.409a1.005 1.005 0 0 0-.96-.961H56.36Zm.687.961-.001.001a.63.63 0 0 0-.6.605V31.5h.001v.028a.63.63 0 0 0 .6.632h2.311a.63.63 0 0 0 .6-.66v-2.144a.63.63 0 0 0-.6-.605h-2.311ZM73.468 33.034c0 .098.078.177.174.177h.689a.175.175 0 0 0 .174-.177V28.84h-.001v-.044a1 1 0 0 0-.95-1.005h-3.582a1 1 0 0 0-.994 1.05v4.194c0 .098.078.177.175.177h.688a.175.175 0 0 0 .174-.177V31.29c0-.098.078-.177.175-.177h3.104c.096 0 .174.08.174.177v1.745Zm-3.453-2.885v-.873c0-.338.271-.612.605-.612h2.243c.334 0 .605.274.605.612v.873a.175.175 0 0 1-.174.176H70.19a.175.175 0 0 1-.175-.176ZM88.007 33.21a.176.176 0 0 1-.176-.176V31.29a.176.176 0 0 0-.176-.177h-3.138a.176.176 0 0 0-.176.177v1.745a.176.176 0 0 1-.176.177h-.695a.176.176 0 0 1-.176-.177V28.84h.001v-.044a1.004 1.004 0 0 1 1.047-1.005h3.576a1.005 1.005 0 0 1 .96 1.049v4.195a.176.176 0 0 1-.176.177h-.695Zm-3.666-3.934v.873c0 .097.079.176.176.176h3.138a.176.176 0 0 0 .176-.176v-.873a.611.611 0 0 0-.61-.612h-2.269a.611.611 0 0 0-.61.612Z" fill="#fff"/><path d="M77.097 27.79c.051 0 .1.022.133.062l3.089 3.682c.105.125.307.05.307-.115v-3.453c0-.097.078-.176.174-.176h.689c.096 0 .174.079.174.176v5.068a.175.175 0 0 1-.174.177h-.857a.007.007 0 0 1-.006-.007l-.002-.004-3.141-3.657c-.106-.123-.305-.047-.305.116v3.375a.175.175 0 0 1-.174.177h-.694a.175.175 0 0 1-.174-.177v-5.068c0-.097.078-.176.174-.176h.787Z" fill="#fff"/><path d="M32.281 33.397a.458.458 0 0 1 .324-.134h11.202c.204 0 .306.247.162.391l-2.213 2.212a.458.458 0 0 1-.324.134H30.229a.229.229 0 0 1-.161-.391l2.213-2.212Z" fill="url(#h)"/><path d="M32.281 25.134a.458.458 0 0 1 .324-.134h11.202c.204 0 .306.247.162.391l-2.213 2.212a.458.458 0 0 1-.324.134H30.229a.229.229 0 0 1-.161-.391l2.213-2.212Z" fill="url(#i)"/><path d="M41.756 29.24a.458.458 0 0 0-.324-.135H30.229a.229.229 0 0 0-.161.391l2.213 2.212a.458.458 0 0 0 .324.134h11.202a.229.229 0 0 0 .162-.39l-2.213-2.213Z" fill="url(#j)"/><rect x="354" y="29" width="45" height="4" rx="2" fill="#14F195"/><rect x="406" y="29" width="24" height="4" rx="2" fill="#666"/><rect x="438" y="29" width="32" height="4" rx="2" fill="#666"/><rect x="479" y="22" width="69" height="18" rx="4" fill="#14F195"/><rect x="30" y="82" width="178" height="5" rx="2.5" fill="#fff"/><path d="M15 203a4 4 0 0 1 4-4h535a4 4 0 0 1 4 4v23H15v-23Z" fill="#1F2423" fill-opacity="0.5"/><rect x="30" y="210" width="117" height="5" rx="2.5" fill="#fff"/><path fill="#1F2423" fill-opacity="0.5" d="M15 226h543v27H15z"/><rect x="30" y="237" width="79" height="5" rx="2.5" fill="#fff"/><rect x="521" y="237" width="29" height="5" rx="2.5" fill="#14F195"/><path fill="#1F2423" fill-opacity="0.5" d="M15 280h543v27H15z"/><rect x="30" y="291" width="79" height="5" rx="2.5" fill="#fff"/><rect x="388" y="291" width="162" height="5" rx="2.5" fill="#fff"/><path fill="#1F2423" fill-opacity="0.5" d="M15 334h543v27H15z"/><rect x="30" y="345" width="31" height="5" rx="2.5" fill="#fff"/><rect x="513" y="345" width="37" height="5" rx="2.5" fill="#fff"/><path d="M15 388h543v23a4 4 0 0 1-4 4H19a4 4 0 0 1-4-4v-23Z" fill="#1F2423" fill-opacity="0.5"/><rect x="30" y="399" width="79" height="5" rx="2.5" fill="#fff"/><rect x="513" y="399" width="37" height="5" rx="2.5" fill="#fff"/><path fill="#1F2423" fill-opacity="0.5" d="M15 253h543v27H15z"/><rect x="30" y="264" width="67" height="5" rx="2.5" fill="#fff"/><rect x="472" y="264" width="78" height="5" rx="2.5" fill="#fff"/><path fill="#1F2423" fill-opacity="0.5" d="M15 307h543v27H15z"/><rect x="30" y="318" width="82" height="5" rx="2.5" fill="#fff"/><rect x="521" y="318" width="29" height="5" rx="2.5" fill="#fff"/><path fill="#1F2423" fill-opacity="0.5" d="M15 361h543v27H15z"/><rect x="30" y="372" width="67" height="5" rx="2.5" fill="#fff"/><rect x="541" y="372" width="9" height="5" rx="2.5" fill="#fff"/><rect x="30" y="127" width="44" height="6" rx="3" fill="#fff"/><rect x="234" y="127" width="70" height="6" rx="3" fill="#fff"/><rect x="432" y="127" width="23" height="6" rx="3" fill="#fff"/><rect x="460" y="127" width="23" height="6" rx="3" fill="#14F195"/><rect x="30" y="160" width="26" height="3" rx="1.5" fill="#14F195"/><rect x="234" y="160" width="26" height="3" rx="1.5" fill="#14F195"/><rect x="432" y="160" width="26" height="3" rx="1.5" fill="#14F195"/><rect x="61" y="160" width="36" height="3" rx="1.5" fill="#fff"/><rect x="265" y="160" width="36" height="3" rx="1.5" fill="#fff"/><rect x="463" y="160" width="36" height="3" rx="1.5" fill="#fff"/><rect x="517" y="175" width="36" height="3" rx="1.5" fill="#666"/><path d="M30.756 153c.012-.672.132-1.266.36-1.782a4.84 4.84 0 0 1 .972-1.422c.432-.444 1.014-.936 1.746-1.476l1.35-1.008c.732-.552 1.308-1.092 1.728-1.62.42-.528.63-1.122.63-1.782 0-.684-.204-1.236-.612-1.656-.396-.42-.942-.63-1.638-.63-.768 0-1.374.264-1.818.792-.432.516-.648 1.248-.648 2.196v.198H30.9v-.306c0-.9.186-1.68.558-2.34a3.729 3.729 0 0 1 1.548-1.53c.672-.36 1.434-.54 2.286-.54.816 0 1.536.162 2.16.486a3.367 3.367 0 0 1 1.44 1.332c.348.576.522 1.242.522 1.998 0 .96-.282 1.812-.846 2.556-.564.732-1.446 1.542-2.646 2.43l-.864.648c-.648.48-1.11.846-1.386 1.098-.276.252-.45.474-.522.666h6.408V153h-8.802Zm15.249.288c-2.136 0-3.558-1.05-4.266-3.15-.312-.888-.468-1.944-.468-3.168 0-.828.078-1.632.234-2.412.168-.78.408-1.452.72-2.016.432-.792 1.002-1.398 1.71-1.818.72-.42 1.548-.63 2.484-.63 1.164 0 2.1.318 2.808.954.708.636 1.08 1.476 1.116 2.52h-1.854c-.036-.612-.246-1.092-.63-1.44-.372-.348-.87-.522-1.494-.522-.996 0-1.764.378-2.304 1.134-.54.756-.84 1.836-.9 3.24l-.054.648c.3-.528.75-.972 1.35-1.332a3.716 3.716 0 0 1 1.998-.558c.756 0 1.428.18 2.016.54.6.348 1.068.84 1.404 1.476.336.624.504 1.338.504 2.142 0 .84-.192 1.596-.576 2.268a4.222 4.222 0 0 1-1.584 1.566c-.66.372-1.398.558-2.214.558Zm-.036-1.476c.744 0 1.35-.258 1.818-.774.48-.528.72-1.218.72-2.07 0-.78-.228-1.422-.684-1.926-.444-.516-1.038-.774-1.782-.774-.756 0-1.386.252-1.89.756-.492.504-.738 1.134-.738 1.89 0 .936.234 1.656.702 2.16.48.492 1.098.738 1.854.738Zm10.772 1.476c-.948 0-1.77-.15-2.466-.45-.684-.3-1.206-.72-1.566-1.26-.36-.54-.54-1.17-.54-1.89 0-.732.234-1.386.702-1.962.48-.576 1.128-.996 1.944-1.26-.72-.252-1.29-.624-1.71-1.116a2.697 2.697 0 0 1-.63-1.782c0-.66.174-1.254.522-1.782.36-.528.864-.942 1.512-1.242.648-.3 1.398-.45 2.25-.45.84 0 1.584.15 2.232.45.648.3 1.146.714 1.494 1.242.36.516.54 1.104.54 1.764 0 .684-.21 1.284-.63 1.8-.42.504-.99.876-1.71 1.116.828.252 1.476.666 1.944 1.242.48.564.72 1.206.72 1.926 0 .732-.186 1.374-.558 1.926-.372.552-.906.978-1.602 1.278-.684.3-1.5.45-2.448.45Zm.018-7.632c.708 0 1.284-.186 1.728-.558.456-.384.684-.876.684-1.476s-.222-1.086-.666-1.458c-.444-.384-1.026-.576-1.746-.576-.732 0-1.32.186-1.764.558a1.792 1.792 0 0 0-.666 1.44c0 .612.222 1.11.666 1.494.444.384 1.032.576 1.764.576Zm0 6.156c.804 0 1.458-.204 1.962-.612.504-.42.756-.972.756-1.656 0-.648-.258-1.182-.774-1.602-.504-.432-1.152-.648-1.944-.648s-1.446.216-1.962.648c-.504.42-.756.954-.756 1.602 0 .684.246 1.236.738 1.656.504.408 1.164.612 1.98.612ZM65.605 153H63.3v-2.304h2.304V153Zm2.843 0c.156-2.172.606-4.128 1.35-5.868.744-1.74 1.692-3.198 2.844-4.374.216-.228.444-.444.684-.648h-6.948v-1.71h8.658v1.818c-1.296 1.332-2.352 2.916-3.168 4.752-.804 1.836-1.254 3.846-1.35 6.03h-2.07Zm8.027 0h-1.692l4.86-12.6h1.692l-4.86 12.6ZM239.256 153.288c-1.38 0-2.472-.366-3.276-1.098-.804-.732-1.206-1.728-1.206-2.988h1.872c0 .78.228 1.404.684 1.872.468.468 1.11.702 1.926.702.804 0 1.452-.204 1.944-.612.492-.42.738-.99.738-1.71 0-.684-.246-1.224-.738-1.62-.492-.396-1.122-.594-1.89-.594h-.792v-1.584h.81c.672 0 1.224-.174 1.656-.522.444-.36.666-.87.666-1.53 0-.612-.204-1.092-.612-1.44-.408-.36-.96-.54-1.656-.54-.78 0-1.392.21-1.836.63-.444.42-.678.996-.702 1.728h-1.908c.036-1.176.45-2.118 1.242-2.826.792-.708 1.866-1.062 3.222-1.062.792 0 1.5.144 2.124.432.624.288 1.11.69 1.458 1.206.36.516.54 1.11.54 1.782a2.72 2.72 0 0 1-.612 1.764c-.408.504-.972.87-1.692 1.098.816.228 1.452.618 1.908 1.17.456.54.684 1.212.684 2.016a3.27 3.27 0 0 1-.594 1.926c-.384.564-.924 1.008-1.62 1.332-.684.312-1.464.468-2.34.468Zm6.17-.288c.012-.672.132-1.266.36-1.782a4.84 4.84 0 0 1 .972-1.422c.432-.444 1.014-.936 1.746-1.476l1.35-1.008c.732-.552 1.308-1.092 1.728-1.62.42-.528.63-1.122.63-1.782 0-.684-.204-1.236-.612-1.656-.396-.42-.942-.63-1.638-.63-.768 0-1.374.264-1.818.792-.432.516-.648 1.248-.648 2.196v.198h-1.926v-.306c0-.9.186-1.68.558-2.34a3.729 3.729 0 0 1 1.548-1.53c.672-.36 1.434-.54 2.286-.54.816 0 1.536.162 2.16.486a3.367 3.367 0 0 1 1.44 1.332c.348.576.522 1.242.522 1.998 0 .96-.282 1.812-.846 2.556-.564.732-1.446 1.542-2.646 2.43l-.864.648c-.648.48-1.11.846-1.386 1.098-.276.252-.45.474-.522.666h6.408V153h-8.802Zm14.763.288c-.888 0-1.662-.156-2.322-.468-.648-.324-1.152-.768-1.512-1.332-.348-.564-.528-1.212-.54-1.944h1.872c.012.66.234 1.2.666 1.62.432.408 1.026.612 1.782.612.828 0 1.488-.258 1.98-.774.492-.528.738-1.236.738-2.124 0-.828-.228-1.5-.684-2.016-.444-.528-1.062-.792-1.854-.792-.576 0-1.092.156-1.548.468-.456.3-.774.654-.954 1.062h-1.8l.936-7.2h7.074v1.71h-5.688l-.414 3.006c-.06.432-.108.72-.144.864a3.585 3.585 0 0 1 1.278-1.026 3.81 3.81 0 0 1 1.728-.396c.768 0 1.452.186 2.052.558.6.372 1.062.882 1.386 1.53.336.648.504 1.368.504 2.16 0 .888-.192 1.674-.576 2.358a4.023 4.023 0 0 1-1.602 1.566c-.684.372-1.47.558-2.358.558Zm8.625-.288h-2.304v-2.304h2.304V153Zm2.843 0c.156-2.172.606-4.128 1.35-5.868.744-1.74 1.692-3.198 2.844-4.374.216-.228.444-.444.684-.648h-6.948v-1.71h8.658v1.818c-1.296 1.332-2.352 2.916-3.168 4.752-.804 1.836-1.254 3.846-1.35 6.03h-2.07Zm8.027 0h-1.692l4.86-12.6h1.692l-4.86 12.6ZM442.17 149.454c0 .648-.162 1.242-.486 1.782-.312.54-.762.99-1.35 1.35-.576.348-1.254.57-2.034.666v1.746h-1.458v-1.746c-1.284-.12-2.304-.57-3.06-1.35-.744-.792-1.146-1.812-1.206-3.06h1.836c.024.78.252 1.428.684 1.944.432.516 1.014.834 1.746.954v-4.446l-.468-.108c-1.02-.24-1.848-.654-2.484-1.242-.624-.6-.936-1.356-.936-2.268 0-.636.162-1.206.486-1.71a3.81 3.81 0 0 1 1.386-1.26c.588-.324 1.26-.522 2.016-.594v-1.728h1.458v1.764c1.08.156 1.938.576 2.574 1.26.636.684.984 1.56 1.044 2.628h-1.854c-.024-.576-.192-1.068-.504-1.476a2.39 2.39 0 0 0-1.26-.846v4.158l.414.09c1.056.252 1.896.666 2.52 1.242.624.564.936 1.314.936 2.25Zm-7.398-5.85c0 .936.69 1.578 2.07 1.926v-3.906c-.636.072-1.14.282-1.512.63-.372.336-.558.786-.558 1.35Zm3.528 8.118c.624-.108 1.116-.348 1.476-.72.372-.384.558-.852.558-1.404 0-.504-.174-.912-.522-1.224-.336-.312-.84-.564-1.512-.756v4.104Zm9.767 1.566c-1.38 0-2.472-.366-3.276-1.098-.804-.732-1.206-1.728-1.206-2.988h1.872c0 .78.228 1.404.684 1.872.468.468 1.11.702 1.926.702.804 0 1.452-.204 1.944-.612.492-.42.738-.99.738-1.71 0-.684-.246-1.224-.738-1.62-.492-.396-1.122-.594-1.89-.594h-.792v-1.584h.81c.672 0 1.224-.174 1.656-.522.444-.36.666-.87.666-1.53 0-.612-.204-1.092-.612-1.44-.408-.36-.96-.54-1.656-.54-.78 0-1.392.21-1.836.63-.444.42-.678.996-.702 1.728h-1.908c.036-1.176.45-2.118 1.242-2.826.792-.708 1.866-1.062 3.222-1.062.792 0 1.5.144 2.124.432.624.288 1.11.69 1.458 1.206.36.516.54 1.11.54 1.782a2.72 2.72 0 0 1-.612 1.764c-.408.504-.972.87-1.692 1.098.816.228 1.452.618 1.908 1.17.456.54.684 1.212.684 2.016a3.27 3.27 0 0 1-.594 1.926c-.384.564-.924 1.008-1.62 1.332-.684.312-1.464.468-2.34.468Zm10.669 0c-1.38 0-2.472-.366-3.276-1.098-.804-.732-1.206-1.728-1.206-2.988h1.872c0 .78.228 1.404.684 1.872.468.468 1.11.702 1.926.702.804 0 1.452-.204 1.944-.612.492-.42.738-.99.738-1.71 0-.684-.246-1.224-.738-1.62-.492-.396-1.122-.594-1.89-.594h-.792v-1.584h.81c.672 0 1.224-.174 1.656-.522.444-.36.666-.87.666-1.53 0-.612-.204-1.092-.612-1.44-.408-.36-.96-.54-1.656-.54-.78 0-1.392.21-1.836.63-.444.42-.678.996-.702 1.728h-1.908c.036-1.176.45-2.118 1.242-2.826.792-.708 1.866-1.062 3.222-1.062.792 0 1.5.144 2.124.432.624.288 1.11.69 1.458 1.206.36.516.54 1.11.54 1.782a2.72 2.72 0 0 1-.612 1.764c-.408.504-.972.87-1.692 1.098.816.228 1.452.618 1.908 1.17.456.54.684 1.212.684 2.016a3.27 3.27 0 0 1-.594 1.926c-.384.564-.924 1.008-1.62 1.332-.684.312-1.464.468-2.34.468Zm8.798-.288h-2.304v-2.304h2.304V153Zm6.346.288c-2.136 0-3.558-1.05-4.266-3.15-.312-.888-.468-1.944-.468-3.168 0-.828.078-1.632.234-2.412.168-.78.408-1.452.72-2.016.432-.792 1.002-1.398 1.71-1.818.72-.42 1.548-.63 2.484-.63 1.164 0 2.1.318 2.808.954.708.636 1.08 1.476 1.116 2.52h-1.854c-.036-.612-.246-1.092-.63-1.44-.372-.348-.87-.522-1.494-.522-.996 0-1.764.378-2.304 1.134-.54.756-.84 1.836-.9 3.24l-.054.648c.3-.528.75-.972 1.35-1.332a3.716 3.716 0 0 1 1.998-.558c.756 0 1.428.18 2.016.54.6.348 1.068.84 1.404 1.476.336.624.504 1.338.504 2.142 0 .84-.192 1.596-.576 2.268a4.222 4.222 0 0 1-1.584 1.566c-.66.372-1.398.558-2.214.558Zm-.036-1.476c.744 0 1.35-.258 1.818-.774.48-.528.72-1.218.72-2.07 0-.78-.228-1.422-.684-1.926-.444-.516-1.038-.774-1.782-.774-.756 0-1.386.252-1.89.756-.492.504-.738 1.134-.738 1.89 0 .936.234 1.656.702 2.16.48.492 1.098.738 1.854.738Zm10.466 1.476c-.888 0-1.662-.156-2.322-.468-.648-.324-1.152-.768-1.512-1.332-.348-.564-.528-1.212-.54-1.944h1.872c.012.66.234 1.2.666 1.62.432.408 1.026.612 1.782.612.828 0 1.488-.258 1.98-.774.492-.528.738-1.236.738-2.124 0-.828-.228-1.5-.684-2.016-.444-.528-1.062-.792-1.854-.792-.576 0-1.092.156-1.548.468-.456.3-.774.654-.954 1.062h-1.8l.936-7.2h7.074v1.71h-5.688l-.414 3.006c-.06.432-.108.72-.144.864a3.585 3.585 0 0 1 1.278-1.026 3.81 3.81 0 0 1 1.728-.396c.768 0 1.452.186 2.052.558.6.372 1.062.882 1.386 1.53.336.648.504 1.368.504 2.16 0 .888-.192 1.674-.576 2.358a4.023 4.023 0 0 1-1.602 1.566c-.684.372-1.47.558-2.358.558Z" fill="#14F195"/><path d="M87.42 153.192c-.592 0-1.108-.104-1.548-.312a2.48 2.48 0 0 1-1.008-.888 2.498 2.498 0 0 1-.36-1.296h1.248c.008.44.156.8.444 1.08.288.272.684.408 1.188.408.552 0 .992-.172 1.32-.516.328-.352.492-.824.492-1.416 0-.552-.152-1-.456-1.344-.296-.352-.708-.528-1.236-.528-.384 0-.728.104-1.032.312-.304.2-.516.436-.636.708h-1.2l.624-4.8h4.716v1.14h-3.792l-.276 2.004c-.04.288-.072.48-.096.576a2.39 2.39 0 0 1 .852-.684 2.54 2.54 0 0 1 1.152-.264c.512 0 .968.124 1.368.372.4.248.708.588.924 1.02.224.432.336.912.336 1.44 0 .592-.128 1.116-.384 1.572a2.682 2.682 0 0 1-1.068 1.044c-.456.248-.98.372-1.572.372Zm7.238 0c-1.424 0-2.372-.7-2.844-2.1-.208-.592-.312-1.296-.312-2.112 0-.552.052-1.088.156-1.608.112-.52.272-.968.48-1.344a3.091 3.091 0 0 1 1.14-1.212c.48-.28 1.032-.42 1.656-.42.776 0 1.4.212 1.872.636.472.424.72.984.744 1.68h-1.236c-.024-.408-.164-.728-.42-.96-.248-.232-.58-.348-.996-.348-.664 0-1.176.252-1.536.756-.36.504-.56 1.224-.6 2.16l-.036.432c.2-.352.5-.648.9-.888.4-.248.844-.372 1.332-.372.504 0 .952.12 1.344.36.4.232.712.56.936.984.224.416.336.892.336 1.428 0 .56-.128 1.064-.384 1.512-.256.44-.608.788-1.056 1.044-.44.248-.932.372-1.476.372Zm-.024-.984c.496 0 .9-.172 1.212-.516.32-.352.48-.812.48-1.38 0-.52-.152-.948-.456-1.284-.296-.344-.692-.516-1.188-.516-.504 0-.924.168-1.26.504-.328.336-.492.756-.492 1.26 0 .624.156 1.104.468 1.44.32.328.732.492 1.236.492Zm8.969.792h-1.224v-2.112h-3.888v-1.116l3.504-5.172h1.608v5.208h1.548v1.08h-1.548V153Zm-1.224-3.192v-4.068c-.072.128-.188.32-.348.576l-2.064 3.048-.144.216-.168.228h2.724Zm3.594 3.192c.008-.448.088-.844.24-1.188s.368-.66.648-.948a9.578 9.578 0 0 1 1.164-.984l.9-.672c.488-.368.872-.728 1.152-1.08.28-.352.42-.748.42-1.188 0-.456-.136-.824-.408-1.104-.264-.28-.628-.42-1.092-.42-.512 0-.916.176-1.212.528-.288.344-.432.832-.432 1.464v.132h-1.284v-.204c0-.6.124-1.12.372-1.56a2.486 2.486 0 0 1 1.032-1.02c.448-.24.956-.36 1.524-.36.544 0 1.024.108 1.44.324.416.208.736.504.96.888.232.384.348.828.348 1.332 0 .64-.188 1.208-.564 1.704-.376.488-.964 1.028-1.764 1.62l-.576.432c-.432.32-.74.564-.924.732-.184.168-.3.316-.348.444h4.272V153h-5.868ZM291.504 153.192c-.92 0-1.648-.244-2.184-.732-.536-.488-.804-1.152-.804-1.992h1.248c0 .52.152.936.456 1.248.312.312.74.468 1.284.468.536 0 .968-.136 1.296-.408.328-.28.492-.66.492-1.14 0-.456-.164-.816-.492-1.08-.328-.264-.748-.396-1.26-.396h-.528v-1.056h.54c.448 0 .816-.116 1.104-.348.296-.24.444-.58.444-1.02 0-.408-.136-.728-.408-.96-.272-.24-.64-.36-1.104-.36-.52 0-.928.14-1.224.42-.296.28-.452.664-.468 1.152h-1.272c.024-.784.3-1.412.828-1.884s1.244-.708 2.148-.708c.528 0 1 .096 1.416.288.416.192.74.46.972.804.24.344.36.74.36 1.188 0 .448-.136.84-.408 1.176-.272.336-.648.58-1.128.732.544.152.968.412 1.272.78.304.36.456.808.456 1.344 0 .48-.132.908-.396 1.284-.256.376-.616.672-1.08.888-.456.208-.976.312-1.56.312Zm5.253-.192c.104-1.448.404-2.752.9-3.912.496-1.16 1.128-2.132 1.896-2.916.144-.152.296-.296.456-.432h-4.632v-1.14h5.772v1.212c-.864.888-1.568 1.944-2.112 3.168-.536 1.224-.836 2.564-.9 4.02h-1.38Zm8.093.192c-.592 0-1.108-.104-1.548-.312a2.48 2.48 0 0 1-1.008-.888 2.498 2.498 0 0 1-.36-1.296h1.248c.008.44.156.8.444 1.08.288.272.684.408 1.188.408.552 0 .992-.172 1.32-.516.328-.352.492-.824.492-1.416 0-.552-.152-1-.456-1.344-.296-.352-.708-.528-1.236-.528-.384 0-.728.104-1.032.312-.304.2-.516.436-.636.708h-1.2l.624-4.8h4.716v1.14h-3.792l-.276 2.004c-.04.288-.072.48-.096.576a2.39 2.39 0 0 1 .852-.684 2.54 2.54 0 0 1 1.152-.264c.512 0 .968.124 1.368.372.4.248.708.588.924 1.02.224.432.336.912.336 1.44 0 .592-.128 1.116-.384 1.572a2.682 2.682 0 0 1-1.068 1.044c-.456.248-.98.372-1.572.372Zm6.892-8.592v8.4h-1.224v-5.88c0-.328.008-.572.024-.732a2.52 2.52 0 0 1-.84.828 2.36 2.36 0 0 1-1.152.336v-1.188a2.63 2.63 0 0 0 1.368-.588c.4-.328.664-.72.792-1.176h1.032ZM498.732 153.192c-1 0-1.776-.384-2.328-1.152-.544-.768-.816-1.848-.816-3.24 0-.912.128-1.696.384-2.352.256-.664.62-1.172 1.092-1.524.472-.352 1.028-.528 1.668-.528.64 0 1.196.176 1.668.528.472.344.836.848 1.092 1.512.256.664.384 1.46.384 2.388 0 1.376-.276 2.448-.828 3.216-.552.768-1.324 1.152-2.316 1.152Zm.012-1.008c.6 0 1.06-.276 1.38-.828.328-.56.492-1.4.492-2.52 0-1.144-.164-2-.492-2.568-.32-.568-.78-.852-1.38-.852-.616 0-1.088.284-1.416.852-.32.56-.48 1.42-.48 2.58 0 1.104.164 1.936.492 2.496.336.56.804.84 1.404.84Zm5.707.816h-1.536v-1.536h1.536V153Zm1.896 0c.104-1.448.404-2.752.9-3.912.496-1.16 1.128-2.132 1.896-2.916.144-.152.296-.296.456-.432h-4.632v-1.14h5.772v1.212c-.864.888-1.568 1.944-2.112 3.168-.536 1.224-.836 2.564-.9 4.02h-1.38Zm8.093.192c-.592 0-1.108-.104-1.548-.312a2.48 2.48 0 0 1-1.008-.888 2.498 2.498 0 0 1-.36-1.296h1.248c.008.44.156.8.444 1.08.288.272.684.408 1.188.408.552 0 .992-.172 1.32-.516.328-.352.492-.824.492-1.416 0-.552-.152-1-.456-1.344-.296-.352-.708-.528-1.236-.528-.384 0-.728.104-1.032.312-.304.2-.516.436-.636.708h-1.2l.624-4.8h4.716v1.14h-3.792l-.276 2.004c-.04.288-.072.48-.096.576a2.39 2.39 0 0 1 .852-.684 2.54 2.54 0 0 1 1.152-.264c.512 0 .968.124 1.368.372.4.248.708.588.924 1.02.224.432.336.912.336 1.44 0 .592-.128 1.116-.384 1.572a2.682 2.682 0 0 1-1.068 1.044c-.456.248-.98.372-1.572.372Zm5.75-4.692c-.568 0-1.028-.184-1.38-.552-.352-.376-.528-.864-.528-1.464 0-.592.176-1.072.528-1.44.352-.376.812-.564 1.38-.564.56 0 1.016.188 1.368.564.352.368.528.848.528 1.44 0 .6-.176 1.088-.528 1.464-.352.368-.808.552-1.368.552Zm-.096 4.5h-1.152l6.084-8.4h1.164l-6.096 8.4Zm.096-5.364a.751.751 0 0 0 .624-.312c.168-.216.252-.496.252-.84 0-.352-.084-.636-.252-.852-.16-.224-.368-.336-.624-.336a.787.787 0 0 0-.66.336c-.16.216-.24.5-.24.852 0 .344.08.624.24.84a.808.808 0 0 0 .66.312Zm4.752 5.484c-.56 0-1.016-.188-1.368-.564-.344-.376-.516-.864-.516-1.464 0-.592.172-1.072.516-1.44.352-.376.808-.564 1.368-.564.568 0 1.028.188 1.38.564.352.368.528.848.528 1.44 0 .6-.176 1.088-.528 1.464-.352.376-.812.564-1.38.564Zm0-.864c.264 0 .48-.108.648-.324.168-.216.252-.496.252-.84 0-.352-.084-.636-.252-.852a.776.776 0 0 0-.648-.336.776.776 0 0 0-.648.336c-.16.216-.24.5-.24.852 0 .344.08.624.24.84a.785.785 0 0 0 .648.324Z" fill="#fff"/><defs><filter id="b" x="-165" y="-16" width="905" height="583" filterUnits="userSpaceOnUse" color-interpolation-filters="sRGB"><feFlood flood-opacity="0" result="BackgroundImageFix"/><feGaussianBlur in="BackgroundImage" stdDeviation="8"/><feComposite in2="SourceAlpha" operator="in" result="effect1_backgroundBlur"/><feBlend in="SourceGraphic" in2="effect1_backgroundBlur" result="shape"/></filter><filter id="c" x="-211.169" y="-205.172" width="930.338" height="830.338" filterUnits="userSpaceOnUse" color-interpolation-filters="sRGB"><feFlood flood-opacity="0" result="BackgroundImageFix"/><feBlend in="SourceGraphic" in2="BackgroundImageFix" result="shape"/><feGaussianBlur stdDeviation="91.5846" result="effect1_foregroundBlur"/></filter><filter id="e" x="18.184" y="-274.741" width="727.841" height="727.908" filterUnits="userSpaceOnUse" color-interpolation-filters="sRGB"><feFlood flood-opacity="0" result="BackgroundImageFix"/><feBlend in="SourceGraphic" in2="BackgroundImageFix" result="shape"/><feGaussianBlur stdDeviation="61.5235" result="effect1_foregroundBlur"/></filter><filter id="f" x="-158.304" y="47.694" width="572.608" height="572.608" filterUnits="userSpaceOnUse" color-interpolation-filters="sRGB"><feFlood flood-opacity="0" result="BackgroundImageFix"/><feBlend in="SourceGraphic" in2="BackgroundImageFix" result="shape"/><feGaussianBlur stdDeviation="59.1519" result="effect1_foregroundBlur"/></filter><filter id="g" x="179.696" y="-155.306" width="572.608" height="572.608" filterUnits="userSpaceOnUse" color-interpolation-filters="sRGB"><feFlood flood-opacity="0" result="BackgroundImageFix"/><feBlend in="SourceGraphic" in2="BackgroundImageFix" result="shape"/><feGaussianBlur stdDeviation="59.1519" result="effect1_foregroundBlur"/></filter><linearGradient id="h" x1="39.4897" y1="21.9826" x2="31.7367" y2="36.8327" gradientUnits="userSpaceOnUse"><stop stop-color="#00FFA3"/><stop offset="1" stop-color="#DC1FFF"/></linearGradient><linearGradient id="i" x1="39.4897" y1="21.9826" x2="31.7367" y2="36.8327" gradientUnits="userSpaceOnUse"><stop stop-color="#00FFA3"/><stop offset="1" stop-color="#DC1FFF"/></linearGradient><linearGradient id="j" x1="39.4897" y1="21.9826" x2="31.7367" y2="36.8327" gradientUnits="userSpaceOnUse"><stop stop-color="#00FFA3"/><stop offset="1" stop-color="#DC1FFF"/></linearGradient><clipPath id="a"><rect width="575" height="432" rx="16" fill="#fff"/></clipPath></defs></svg>